<?xml version="1.0" encoding="UTF-8" standalone="no"?><svg xmlns="http://www.w3.org/2000/svg" xmlns:xlink="http://www.w3.org/1999/xlink" contentScriptType="application/ecmascript" contentStyleType="text/css" height="2940px" preserveAspectRatio="none" style="width:985px;height:2940px;background:#FFFFFF;" version="1.1" viewBox="0 0 985 2940" width="985px" zoomAndPan="magnify"><defs><filter height="300%" id="f15rikx4uhua7e" width="300%" x="-1" y="-1"><feGaussianBlur result="blurOut" stdDeviation="2.0"/><feColorMatrix in="blurOut" result="blurOut2" type="matrix" values="0 0 0 0 0 0 0 0 0 0 0 0 0 0 0 0 0 0 .4 0"/><feOffset dx="4.0" dy="4.0" in="blurOut2" result="blurOut3"/><feBlend in="SourceGraphic" in2="blurOut3" mode="normal"/></filter></defs><g><!--MD5=[66b1af65415d3c71fe08e34a9d5972ea]
cluster SCFault--><rect fill="#FEFECE" filter="url(#f15rikx4uhua7e)" height="346" rx="12.5" ry="12.5" style="stroke:#A80036;stroke-width:1.5;" width="410" x="339.5" y="2582"/><rect fill="#FFFFFF" height="313.7031" rx="12.5" ry="12.5" style="stroke:#FFFFFF;stroke-width:1.0;" width="404" x="342.5" y="2611.2969"/><line style="stroke:#A80036;stroke-width:1.5;" x1="339.5" x2="749.5" y1="2608.2969" y2="2608.2969"/><text fill="#000000" font-family="sans-serif" font-size="14" lengthAdjust="spacing" textLength="52" x="518.5" y="2598.9951">SCFault</text><ellipse cx="441.5" cy="2637" fill="#000000" filter="url(#f15rikx4uhua7e)" rx="10" ry="10" style="stroke:none;stroke-width:1.0;"/><g id="SCFault.HV_Stop"><rect fill="#FEFECE" filter="url(#f15rikx4uhua7e)" height="50.2656" rx="12.5" ry="12.5" style="stroke:#A80036;stroke-width:1.5;" width="139" x="372" y="2854"/><line style="stroke:#A80036;stroke-width:1.5;" x1="372" x2="511" y1="2880.2969" y2="2880.2969"/><text fill="#000000" font-family="sans-serif" font-size="14" lengthAdjust="spacing" textLength="58" x="412.5" y="2871.9951">HV_Stop</text><text fill="#000000" font-family="sans-serif" font-size="12" lengthAdjust="spacing" textLength="119" x="377" y="2896.4355">Redirect to HVStop</text></g><polygon fill="#FEFECE" filter="url(#f15rikx4uhua7e)" points="640.5,2625,652.5,2637,640.5,2649,628.5,2637,640.5,2625" style="stroke:#A80036;stroke-width:1.5;"/><g id="SCFault.CheckAMS"><rect fill="#FEFECE" filter="url(#f15rikx4uhua7e)" height="50" rx="12.5" ry="12.5" style="stroke:#A80036;stroke-width:1.5;" width="94" x="546.5" y="2854"/><line style="stroke:#A80036;stroke-width:1.5;" x1="546.5" x2="640.5" y1="2880.2969" y2="2880.2969"/><text fill="#000000" font-family="sans-serif" font-size="14" lengthAdjust="spacing" textLength="74" x="556.5" y="2871.9951">CheckAMS</text></g><g id="SCFault.Exit"><rect fill="#FEFECE" filter="url(#f15rikx4uhua7e)" height="50" rx="12.5" ry="12.5" style="stroke:#A80036;stroke-width:1.5;" width="50" x="675.5" y="2854"/><line style="stroke:#A80036;stroke-width:1.5;" x1="675.5" x2="725.5" y1="2880.2969" y2="2880.2969"/><text fill="#000000" font-family="sans-serif" font-size="14" lengthAdjust="spacing" textLength="24" x="688.5" y="2871.9951">Exit</text></g><ellipse cx="710.5" cy="16" fill="#000000" filter="url(#f15rikx4uhua7e)" rx="10" ry="10" style="stroke:none;stroke-width:1.0;"/><rect fill="#FEFECE" filter="url(#f15rikx4uhua7e)" height="536.2969" rx="12.5" ry="12.5" style="stroke:#A80036;stroke-width:1.5;" width="219" x="601" y="103"/><rect fill="#FFFFFF" height="504" rx="12.5" ry="12.5" style="stroke:#FFFFFF;stroke-width:1.0;" width="213" x="604" y="132.2969"/><line style="stroke:#A80036;stroke-width:1.5;" x1="601" x2="820" y1="129.2969" y2="129.2969"/><text fill="#000000" font-family="sans-serif" font-size="14" lengthAdjust="spacing" textLength="33" x="694" y="120.9951">Boot</text><g id="Boot.Heartbeat"><rect fill="#FEFECE" filter="url(#f15rikx4uhua7e)" height="50.2656" rx="12.5" ry="12.5" style="stroke:#A80036;stroke-width:1.5;" width="191" x="613" y="141.2969"/><line style="stroke:#A80036;stroke-width:1.5;" x1="613" x2="804" y1="167.5938" y2="167.5938"/><text fill="#000000" font-family="sans-serif" font-size="14" lengthAdjust="spacing" textLength="68" x="674.5" y="159.292">Heartbeat</text><text fill="#000000" font-family="sans-serif" font-size="12" lengthAdjust="spacing" textLength="171" x="618" y="183.7324">Send Heartbeat to Car CAN</text></g><g id="Boot.Wakeup"><rect fill="#FEFECE" filter="url(#f15rikx4uhua7e)" height="50.2656" rx="12.5" ry="12.5" style="stroke:#A80036;stroke-width:1.5;" width="136" x="640.5" y="227.2969"/><line style="stroke:#A80036;stroke-width:1.5;" x1="640.5" x2="776.5" y1="253.5938" y2="253.5938"/><text fill="#000000" font-family="sans-serif" font-size="14" lengthAdjust="spacing" textLength="56" x="680.5" y="245.292">Wakeup</text><text fill="#000000" font-family="sans-serif" font-size="12" lengthAdjust="spacing" textLength="116" x="645.5" y="269.7324">Send BMS Wakeup</text></g><g id="Boot.Init"><rect fill="#FEFECE" filter="url(#f15rikx4uhua7e)" height="50.2656" rx="12.5" ry="12.5" style="stroke:#A80036;stroke-width:1.5;" width="106" x="655.5" y="313.2969"/><line style="stroke:#A80036;stroke-width:1.5;" x1="655.5" x2="761.5" y1="339.5938" y2="339.5938"/><text fill="#000000" font-family="sans-serif" font-size="14" lengthAdjust="spacing" textLength="20" x="698.5" y="331.292">Init</text><text fill="#000000" font-family="sans-serif" font-size="12" lengthAdjust="spacing" textLength="86" x="660.5" y="355.7324">Initialize BMSs</text></g><g id="Boot.CheckIMDFault"><rect fill="#FEFECE" filter="url(#f15rikx4uhua7e)" height="50" rx="12.5" ry="12.5" style="stroke:#A80036;stroke-width:1.5;" width="123" x="647" y="399.2969"/><line style="stroke:#A80036;stroke-width:1.5;" x1="647" x2="770" y1="425.5938" y2="425.5938"/><text fill="#000000" font-family="sans-serif" font-size="14" lengthAdjust="spacing" textLength="103" x="657" y="417.292">CheckIMDFault</text></g><g id="Boot.CheckContactors"><rect fill="#FEFECE" filter="url(#f15rikx4uhua7e)" height="50" rx="12.5" ry="12.5" style="stroke:#A80036;stroke-width:1.5;" width="140" x="638.5" y="485.2969"/><line style="stroke:#A80036;stroke-width:1.5;" x1="638.5" x2="778.5" y1="511.5938" y2="511.5938"/><text fill="#000000" font-family="sans-serif" font-size="14" lengthAdjust="spacing" textLength="120" x="648.5" y="503.292">CheckContactors</text></g><g id="Boot.CheckFault"><rect fill="#FEFECE" filter="url(#f15rikx4uhua7e)" height="50" rx="12.5" ry="12.5" style="stroke:#A80036;stroke-width:1.5;" width="97" x="660" y="571.2969"/><line style="stroke:#A80036;stroke-width:1.5;" x1="660" x2="757" y1="597.5938" y2="597.5938"/><text fill="#000000" font-family="sans-serif" font-size="14" lengthAdjust="spacing" textLength="77" x="670" y="589.292">CheckFault</text></g><!--MD5=[0f38fcfe5206338a8b5f8ac88e195369]
link Heartbeat to Wakeup--><path d="M708.5,191.5969 C708.5,201.0869 708.5,212.0469 708.5,221.9769 " fill="none" id="Heartbeat-to-Wakeup" style="stroke:#A80036;stroke-width:1.0;"/><polygon fill="#A80036" points="708.5,227.0569,712.5,218.0569,708.5,222.0569,704.5,218.0569,708.5,227.0569" style="stroke:#A80036;stroke-width:1.0;"/><!--MD5=[38d94f6fa5934b524e8da277ffa2ae16]
link Wakeup to Init--><path d="M708.5,277.5969 C708.5,287.0869 708.5,298.0469 708.5,307.9769 " fill="none" id="Wakeup-to-Init" style="stroke:#A80036;stroke-width:1.0;"/><polygon fill="#A80036" points="708.5,313.0569,712.5,304.0569,708.5,308.0569,704.5,304.0569,708.5,313.0569" style="stroke:#A80036;stroke-width:1.0;"/><!--MD5=[a1cf2335adf61b86e83618c57f1260ed]
link Init to CheckIMDFault--><path d="M708.5,363.5969 C708.5,373.0869 708.5,384.0469 708.5,393.9769 " fill="none" id="Init-to-CheckIMDFault" style="stroke:#A80036;stroke-width:1.0;"/><polygon fill="#A80036" points="708.5,399.0569,712.5,390.0569,708.5,394.0569,704.5,390.0569,708.5,399.0569" style="stroke:#A80036;stroke-width:1.0;"/><!--MD5=[6cfa4efcff0232f1578cb7febabe0bbb]
link CheckIMDFault to CheckContactors--><path d="M708.5,449.5969 C708.5,459.0869 708.5,470.0469 708.5,479.9769 " fill="none" id="CheckIMDFault-to-CheckContactors" style="stroke:#A80036;stroke-width:1.0;"/><polygon fill="#A80036" points="708.5,485.0569,712.5,476.0569,708.5,480.0569,704.5,476.0569,708.5,485.0569" style="stroke:#A80036;stroke-width:1.0;"/><!--MD5=[21f4c814113697c64022b07480fa4299]
link CheckContactors to CheckFault--><path d="M708.5,535.5969 C708.5,545.0869 708.5,556.0469 708.5,565.9769 " fill="none" id="CheckContactors-to-CheckFault" style="stroke:#A80036;stroke-width:1.0;"/><polygon fill="#A80036" points="708.5,571.0569,712.5,562.0569,708.5,566.0569,704.5,562.0569,708.5,571.0569" style="stroke:#A80036;stroke-width:1.0;"/><rect fill="#FEFECE" filter="url(#f15rikx4uhua7e)" height="536.2969" rx="12.5" ry="12.5" style="stroke:#A80036;stroke-width:1.5;" width="177" x="462" y="700"/><rect fill="#FFFFFF" height="504" rx="12.5" ry="12.5" style="stroke:#FFFFFF;stroke-width:1.0;" width="171" x="465" y="729.2969"/><line style="stroke:#A80036;stroke-width:1.5;" x1="462" x2="639" y1="726.2969" y2="726.2969"/><text fill="#000000" font-family="sans-serif" font-size="14" lengthAdjust="spacing" textLength="24" x="538.5" y="717.9951">Idle</text><g id="Idle.CheckCarVoltages"><rect fill="#FEFECE" filter="url(#f15rikx4uhua7e)" height="50" rx="12.5" ry="12.5" style="stroke:#A80036;stroke-width:1.5;" width="147" x="475" y="738.2969"/><line style="stroke:#A80036;stroke-width:1.5;" x1="475" x2="622" y1="764.5938" y2="764.5938"/><text fill="#000000" font-family="sans-serif" font-size="14" lengthAdjust="spacing" textLength="127" x="485" y="756.292">CheckCarVoltages</text></g><g id="Idle.CheckCurrent"><rect fill="#FEFECE" filter="url(#f15rikx4uhua7e)" height="50" rx="12.5" ry="12.5" style="stroke:#A80036;stroke-width:1.5;" width="116" x="490.5" y="824.2969"/><line style="stroke:#A80036;stroke-width:1.5;" x1="490.5" x2="606.5" y1="850.5938" y2="850.5938"/><text fill="#000000" font-family="sans-serif" font-size="14" lengthAdjust="spacing" textLength="96" x="500.5" y="842.292">CheckCurrent</text></g><g id="Idle.CheckTemps"><rect fill="#FEFECE" filter="url(#f15rikx4uhua7e)" height="50" rx="12.5" ry="12.5" style="stroke:#A80036;stroke-width:1.5;" width="112" x="492.5" y="910.2969"/><line style="stroke:#A80036;stroke-width:1.5;" x1="492.5" x2="604.5" y1="936.5938" y2="936.5938"/><text fill="#000000" font-family="sans-serif" font-size="14" lengthAdjust="spacing" textLength="92" x="502.5" y="928.292">CheckTemps</text></g><g id="Idle.CheckCellVoltages"><rect fill="#FEFECE" filter="url(#f15rikx4uhua7e)" height="50" rx="12.5" ry="12.5" style="stroke:#A80036;stroke-width:1.5;" width="149" x="474" y="996.2969"/><line style="stroke:#A80036;stroke-width:1.5;" x1="474" x2="623" y1="1022.5938" y2="1022.5938"/><text fill="#000000" font-family="sans-serif" font-size="14" lengthAdjust="spacing" textLength="129" x="484" y="1014.292">CheckCellVoltages</text></g><g id="Idle.CheckFaults"><rect fill="#FEFECE" filter="url(#f15rikx4uhua7e)" height="50" rx="12.5" ry="12.5" style="stroke:#A80036;stroke-width:1.5;" width="105" x="496" y="1082.2969"/><line style="stroke:#A80036;stroke-width:1.5;" x1="496" x2="601" y1="1108.5938" y2="1108.5938"/><text fill="#000000" font-family="sans-serif" font-size="14" lengthAdjust="spacing" textLength="85" x="506" y="1100.292">CheckFaults</text></g><g id="Idle.TransmitData"><rect fill="#FEFECE" filter="url(#f15rikx4uhua7e)" height="50" rx="12.5" ry="12.5" style="stroke:#A80036;stroke-width:1.5;" width="112" x="492.5" y="1168.2969"/><line style="stroke:#A80036;stroke-width:1.5;" x1="492.5" x2="604.5" y1="1194.5938" y2="1194.5938"/><text fill="#000000" font-family="sans-serif" font-size="14" lengthAdjust="spacing" textLength="92" x="502.5" y="1186.292">TransmitData</text></g><!--MD5=[02cb3f7c4d6ddbe56be461bbc5a0899d]
link CheckCarVoltages to CheckCurrent--><path d="M548.5,788.5969 C548.5,798.0869 548.5,809.0469 548.5,818.9769 " fill="none" id="CheckCarVoltages-to-CheckCurrent" style="stroke:#A80036;stroke-width:1.0;"/><polygon fill="#A80036" points="548.5,824.0569,552.5,815.0569,548.5,819.0569,544.5,815.0569,548.5,824.0569" style="stroke:#A80036;stroke-width:1.0;"/><!--MD5=[f202314877cd9349c2006e4cb6a571dd]
link CheckCurrent to CheckTemps--><path d="M548.5,874.5969 C548.5,884.0869 548.5,895.0469 548.5,904.9769 " fill="none" id="CheckCurrent-to-CheckTemps" style="stroke:#A80036;stroke-width:1.0;"/><polygon fill="#A80036" points="548.5,910.0569,552.5,901.0569,548.5,905.0569,544.5,901.0569,548.5,910.0569" style="stroke:#A80036;stroke-width:1.0;"/><!--MD5=[eae11009b165b5b3f1836ba801a0f4a0]
link CheckTemps to CheckCellVoltages--><path d="M548.5,960.5969 C548.5,970.0869 548.5,981.0469 548.5,990.9769 " fill="none" id="CheckTemps-to-CheckCellVoltages" style="stroke:#A80036;stroke-width:1.0;"/><polygon fill="#A80036" points="548.5,996.0569,552.5,987.0569,548.5,991.0569,544.5,987.0569,548.5,996.0569" style="stroke:#A80036;stroke-width:1.0;"/><!--MD5=[322b44c410fbae736cf4bc5f3492e4eb]
link CheckCellVoltages to CheckFaults--><path d="M548.5,1046.5969 C548.5,1056.0869 548.5,1067.0469 548.5,1076.9769 " fill="none" id="CheckCellVoltages-to-CheckFaults" style="stroke:#A80036;stroke-width:1.0;"/><polygon fill="#A80036" points="548.5,1082.0569,552.5,1073.0569,548.5,1077.0569,544.5,1073.0569,548.5,1082.0569" style="stroke:#A80036;stroke-width:1.0;"/><!--MD5=[9fa380f65bbffa622f10b5c1ef871deb]
link CheckFaults to TransmitData--><path d="M548.5,1132.5969 C548.5,1142.0869 548.5,1153.0469 548.5,1162.9769 " fill="none" id="CheckFaults-to-TransmitData" style="stroke:#A80036;stroke-width:1.0;"/><polygon fill="#A80036" points="548.5,1168.0569,552.5,1159.0569,548.5,1163.0569,544.5,1159.0569,548.5,1168.0569" style="stroke:#A80036;stroke-width:1.0;"/><rect fill="#FEFECE" filter="url(#f15rikx4uhua7e)" height="541.5625" rx="12.5" ry="12.5" style="stroke:#A80036;stroke-width:1.5;" width="394.5" x="310" y="1297"/><rect fill="#FFFFFF" height="509.2656" rx="12.5" ry="12.5" style="stroke:#FFFFFF;stroke-width:1.0;" width="388.5" x="313" y="1326.2969"/><line style="stroke:#A80036;stroke-width:1.5;" x1="310" x2="704.5" y1="1323.2969" y2="1323.2969"/><text fill="#000000" font-family="sans-serif" font-size="14" lengthAdjust="spacing" textLength="51" x="481.75" y="1314.9951">HVStart</text><g id="HVStart.NegContactorOn"><rect fill="#FEFECE" filter="url(#f15rikx4uhua7e)" height="50.2656" rx="12.5" ry="12.5" style="stroke:#A80036;stroke-width:1.5;" width="136" x="401.5" y="1335.2969"/><line style="stroke:#A80036;stroke-width:1.5;" x1="401.5" x2="537.5" y1="1361.5938" y2="1361.5938"/><text fill="#000000" font-family="sans-serif" font-size="14" lengthAdjust="spacing" textLength="116" x="411.5" y="1353.292">NegContactorOn</text><text fill="#000000" font-family="sans-serif" font-size="12" lengthAdjust="spacing" textLength="54" x="406.5" y="1377.7324">dsadasd</text></g><g id="HVStart.PreContactorOn"><rect fill="#FEFECE" filter="url(#f15rikx4uhua7e)" height="50" rx="12.5" ry="12.5" style="stroke:#A80036;stroke-width:1.5;" width="131" x="404" y="1422.2969"/><line style="stroke:#A80036;stroke-width:1.5;" x1="404" x2="535" y1="1448.5938" y2="1448.5938"/><text fill="#000000" font-family="sans-serif" font-size="14" lengthAdjust="spacing" textLength="111" x="414" y="1440.292">PreContactorOn</text></g><g id="HVStart.Monitor"><rect fill="#FEFECE" filter="url(#f15rikx4uhua7e)" height="50.2656" rx="12.5" ry="12.5" style="stroke:#A80036;stroke-width:1.5;" width="295" x="322" y="1509.2969"/><line style="stroke:#A80036;stroke-width:1.5;" x1="322" x2="617" y1="1535.5938" y2="1535.5938"/><text fill="#000000" font-family="sans-serif" font-size="14" lengthAdjust="spacing" textLength="52" x="443.5" y="1527.292">Monitor</text><text fill="#000000" font-family="sans-serif" font-size="12" lengthAdjust="spacing" textLength="275" x="327" y="1551.7324">Monitor Vvehicle - Vcar, time (possible fault)</text></g><g id="HVStart.PosContactorOn"><rect fill="#FEFECE" filter="url(#f15rikx4uhua7e)" height="50" rx="12.5" ry="12.5" style="stroke:#A80036;stroke-width:1.5;" width="134" x="402.5" y="1596.2969"/><line style="stroke:#A80036;stroke-width:1.5;" x1="402.5" x2="536.5" y1="1622.5938" y2="1622.5938"/><text fill="#000000" font-family="sans-serif" font-size="14" lengthAdjust="spacing" textLength="114" x="412.5" y="1614.292">PosContactorOn</text></g><g id="HVStart.PreContactorOff"><rect fill="#FEFECE" filter="url(#f15rikx4uhua7e)" height="50" rx="12.5" ry="12.5" style="stroke:#A80036;stroke-width:1.5;" width="130" x="404.5" y="1683.2969"/><line style="stroke:#A80036;stroke-width:1.5;" x1="404.5" x2="534.5" y1="1709.5938" y2="1709.5938"/><text fill="#000000" font-family="sans-serif" font-size="14" lengthAdjust="spacing" textLength="110" x="414.5" y="1701.292">PreContactorOff</text></g><g id="HVStart.LogicCheck"><rect fill="#FEFECE" filter="url(#f15rikx4uhua7e)" height="50.2656" rx="12.5" ry="12.5" style="stroke:#A80036;stroke-width:1.5;" width="137" x="401" y="1770.2969"/><line style="stroke:#A80036;stroke-width:1.5;" x1="401" x2="538" y1="1796.5938" y2="1796.5938"/><text fill="#000000" font-family="sans-serif" font-size="14" lengthAdjust="spacing" textLength="80" x="429.5" y="1788.292">LogicCheck</text><text fill="#000000" font-family="sans-serif" font-size="12" lengthAdjust="spacing" textLength="117" x="406" y="1812.7324">Check Digital Logic</text></g><!--MD5=[3c2f6be710715d7d8787f23ffb04ddfd]
link NegContactorOn to NegContactorOn--><path d="M537.63,1353.0769 C548.26,1354.1569 555.5,1356.5669 555.5,1360.2969 C555.5,1363.3869 550.53,1365.5669 542.79,1366.8369 " fill="none" id="NegContactorOn-to-NegContactorOn" style="stroke:#A80036;stroke-width:1.0;"/><polygon fill="#A80036" points="537.63,1367.5169,547.0697,1370.3262,542.5885,1366.8738,546.0408,1362.3926,537.63,1367.5169" style="stroke:#A80036;stroke-width:1.0;"/><text fill="#000000" font-family="sans-serif" font-size="13" lengthAdjust="spacing" textLength="128" x="561.5" y="1364.8638">Wait until neg sense</text><!--MD5=[3080b731089f8041b3ec73ae8f7c8f75]
link NegContactorOn to PreContactorOn--><path d="M469.5,1385.4269 C469.5,1395.2069 469.5,1406.5969 469.5,1416.8569 " fill="none" id="NegContactorOn-to-PreContactorOn" style="stroke:#A80036;stroke-width:1.0;"/><polygon fill="#A80036" points="469.5,1422.1069,473.5,1413.1069,469.5,1417.1069,465.5,1413.1069,469.5,1422.1069" style="stroke:#A80036;stroke-width:1.0;"/><!--MD5=[15946461cb270620b4a742382d72c8d7]
link PreContactorOn to Monitor--><path d="M469.5,1472.4269 C469.5,1482.2069 469.5,1493.5969 469.5,1503.8569 " fill="none" id="PreContactorOn-to-Monitor" style="stroke:#A80036;stroke-width:1.0;"/><polygon fill="#A80036" points="469.5,1509.1069,473.5,1500.1069,469.5,1504.1069,465.5,1500.1069,469.5,1509.1069" style="stroke:#A80036;stroke-width:1.0;"/><!--MD5=[7c5e14c28dffe2914714e7d83e987e30]
link Monitor to PosContactorOn--><path d="M469.5,1559.4269 C469.5,1569.2069 469.5,1580.5969 469.5,1590.8569 " fill="none" id="Monitor-to-PosContactorOn" style="stroke:#A80036;stroke-width:1.0;"/><polygon fill="#A80036" points="469.5,1596.1069,473.5,1587.1069,469.5,1591.1069,465.5,1587.1069,469.5,1596.1069" style="stroke:#A80036;stroke-width:1.0;"/><!--MD5=[663f127a26914bb77bf4cd3e273aa377]
link PosContactorOn to PosContactorOn--><path d="M536.84,1614.0769 C547.34,1615.1569 554.5,1617.5669 554.5,1621.2969 C554.5,1624.3869 549.59,1626.5669 541.94,1627.8369 " fill="none" id="PosContactorOn-to-PosContactorOn" style="stroke:#A80036;stroke-width:1.0;"/><polygon fill="#A80036" points="536.84,1628.5169,546.2876,1631.2994,541.7966,1627.8598,545.2363,1623.3688,536.84,1628.5169" style="stroke:#A80036;stroke-width:1.0;"/><text fill="#000000" font-family="sans-serif" font-size="13" lengthAdjust="spacing" textLength="127" x="560.5" y="1625.8638">Wait until pos sense</text><!--MD5=[4af793491431d2486db78f54d3b5a318]
link PosContactorOn to PreContactorOff--><path d="M469.5,1646.4269 C469.5,1656.2069 469.5,1667.5969 469.5,1677.8569 " fill="none" id="PosContactorOn-to-PreContactorOff" style="stroke:#A80036;stroke-width:1.0;"/><polygon fill="#A80036" points="469.5,1683.1069,473.5,1674.1069,469.5,1678.1069,465.5,1674.1069,469.5,1683.1069" style="stroke:#A80036;stroke-width:1.0;"/><!--MD5=[4dd8ad02ee184ccb3a6132d55372f23d]
link PreContactorOff to LogicCheck--><path d="M469.5,1733.4269 C469.5,1743.2069 469.5,1754.5969 469.5,1764.8569 " fill="none" id="PreContactorOff-to-LogicCheck" style="stroke:#A80036;stroke-width:1.0;"/><polygon fill="#A80036" points="469.5,1770.1069,473.5,1761.1069,469.5,1765.1069,465.5,1761.1069,469.5,1770.1069" style="stroke:#A80036;stroke-width:1.0;"/><rect fill="#FEFECE" filter="url(#f15rikx4uhua7e)" height="536.2969" rx="12.5" ry="12.5" style="stroke:#A80036;stroke-width:1.5;" width="196" x="320.5" y="1900"/><rect fill="#FFFFFF" height="504" rx="12.5" ry="12.5" style="stroke:#FFFFFF;stroke-width:1.0;" width="190" x="323.5" y="1929.2969"/><line style="stroke:#A80036;stroke-width:1.5;" x1="320.5" x2="516.5" y1="1926.2969" y2="1926.2969"/><text fill="#000000" font-family="sans-serif" font-size="14" lengthAdjust="spacing" textLength="47" x="395" y="1917.9951">HVRun</text><g id="HVRun.MonitorVoltages"><rect fill="#FEFECE" filter="url(#f15rikx4uhua7e)" height="50" rx="12.5" ry="12.5" style="stroke:#A80036;stroke-width:1.5;" width="132" x="350.5" y="1938.2969"/><line style="stroke:#A80036;stroke-width:1.5;" x1="350.5" x2="482.5" y1="1964.5938" y2="1964.5938"/><text fill="#000000" font-family="sans-serif" font-size="14" lengthAdjust="spacing" textLength="112" x="360.5" y="1956.292">MonitorVoltages</text></g><g id="HVRun.MonitorCurrent"><rect fill="#FEFECE" filter="url(#f15rikx4uhua7e)" height="50" rx="12.5" ry="12.5" style="stroke:#A80036;stroke-width:1.5;" width="124" x="354.5" y="2024.2969"/><line style="stroke:#A80036;stroke-width:1.5;" x1="354.5" x2="478.5" y1="2050.5938" y2="2050.5938"/><text fill="#000000" font-family="sans-serif" font-size="14" lengthAdjust="spacing" textLength="104" x="364.5" y="2042.292">MonitorCurrent</text></g><g id="HVRun.MonitorCellTemps"><rect fill="#FEFECE" filter="url(#f15rikx4uhua7e)" height="50" rx="12.5" ry="12.5" style="stroke:#A80036;stroke-width:1.5;" width="145" x="344" y="2110.2969"/><line style="stroke:#A80036;stroke-width:1.5;" x1="344" x2="489" y1="2136.5938" y2="2136.5938"/><text fill="#000000" font-family="sans-serif" font-size="14" lengthAdjust="spacing" textLength="125" x="354" y="2128.292">MonitorCellTemps</text></g><g id="HVRun.MonitorCellVoltages"><rect fill="#FEFECE" filter="url(#f15rikx4uhua7e)" height="50" rx="12.5" ry="12.5" style="stroke:#A80036;stroke-width:1.5;" width="157" x="338" y="2196.2969"/><line style="stroke:#A80036;stroke-width:1.5;" x1="338" x2="495" y1="2222.5938" y2="2222.5938"/><text fill="#000000" font-family="sans-serif" font-size="14" lengthAdjust="spacing" textLength="137" x="348" y="2214.292">MonitorCellVoltages</text></g><g id="HVRun.CheckContactorLogic"><rect fill="#FEFECE" filter="url(#f15rikx4uhua7e)" height="50" rx="12.5" ry="12.5" style="stroke:#A80036;stroke-width:1.5;" width="168" x="332.5" y="2282.2969"/><line style="stroke:#A80036;stroke-width:1.5;" x1="332.5" x2="500.5" y1="2308.5938" y2="2308.5938"/><text fill="#000000" font-family="sans-serif" font-size="14" lengthAdjust="spacing" textLength="148" x="342.5" y="2300.292">CheckContactorLogic</text></g><g id="HVRun.Transmit_Data"><rect fill="#FEFECE" filter="url(#f15rikx4uhua7e)" height="50" rx="12.5" ry="12.5" style="stroke:#A80036;stroke-width:1.5;" width="119" x="357" y="2368.2969"/><line style="stroke:#A80036;stroke-width:1.5;" x1="357" x2="476" y1="2394.5938" y2="2394.5938"/><text fill="#000000" font-family="sans-serif" font-size="14" lengthAdjust="spacing" textLength="99" x="367" y="2386.292">Transmit_Data</text></g><!--MD5=[51718e02026e8664bcb4a868d052a4b8]
link MonitorVoltages to MonitorCurrent--><path d="M416.5,1988.5969 C416.5,1998.0869 416.5,2009.0469 416.5,2018.9769 " fill="none" id="MonitorVoltages-to-MonitorCurrent" style="stroke:#A80036;stroke-width:1.0;"/><polygon fill="#A80036" points="416.5,2024.0569,420.5,2015.0569,416.5,2019.0569,412.5,2015.0569,416.5,2024.0569" style="stroke:#A80036;stroke-width:1.0;"/><!--MD5=[fc8926f639b06999e88be694e6aaf979]
link MonitorCurrent to MonitorCellTemps--><path d="M416.5,2074.5969 C416.5,2084.0869 416.5,2095.0469 416.5,2104.9769 " fill="none" id="MonitorCurrent-to-MonitorCellTemps" style="stroke:#A80036;stroke-width:1.0;"/><polygon fill="#A80036" points="416.5,2110.0569,420.5,2101.0569,416.5,2105.0569,412.5,2101.0569,416.5,2110.0569" style="stroke:#A80036;stroke-width:1.0;"/><!--MD5=[a4eef42739b4cabbe19fb3ca7ecc7ea5]
link MonitorCellTemps to MonitorCellVoltages--><path d="M416.5,2160.5969 C416.5,2170.0869 416.5,2181.0469 416.5,2190.9769 " fill="none" id="MonitorCellTemps-to-MonitorCellVoltages" style="stroke:#A80036;stroke-width:1.0;"/><polygon fill="#A80036" points="416.5,2196.0569,420.5,2187.0569,416.5,2191.0569,412.5,2187.0569,416.5,2196.0569" style="stroke:#A80036;stroke-width:1.0;"/><!--MD5=[c916fbfd8d14eaef14356bd48e11b8a9]
link MonitorCellVoltages to CheckContactorLogic--><path d="M416.5,2246.5969 C416.5,2256.0869 416.5,2267.0469 416.5,2276.9769 " fill="none" id="MonitorCellVoltages-to-CheckContactorLogic" style="stroke:#A80036;stroke-width:1.0;"/><polygon fill="#A80036" points="416.5,2282.0569,420.5,2273.0569,416.5,2277.0569,412.5,2273.0569,416.5,2282.0569" style="stroke:#A80036;stroke-width:1.0;"/><!--MD5=[b817e4f77a247d131ef071a58d546c4c]
link CheckContactorLogic to Transmit_Data--><path d="M416.5,2332.5969 C416.5,2342.0869 416.5,2353.0469 416.5,2362.9769 " fill="none" id="CheckContactorLogic-to-Transmit_Data" style="stroke:#A80036;stroke-width:1.0;"/><polygon fill="#A80036" points="416.5,2368.0569,420.5,2359.0569,416.5,2363.0569,412.5,2359.0569,416.5,2368.0569" style="stroke:#A80036;stroke-width:1.0;"/><rect fill="#FEFECE" filter="url(#f15rikx4uhua7e)" height="280.2969" rx="12.5" ry="12.5" style="stroke:#A80036;stroke-width:1.5;" width="304.5" x="7" y="2497"/><rect fill="#FFFFFF" height="248" rx="12.5" ry="12.5" style="stroke:#FFFFFF;stroke-width:1.0;" width="298.5" x="10" y="2526.2969"/><line style="stroke:#A80036;stroke-width:1.5;" x1="7" x2="311.5" y1="2523.2969" y2="2523.2969"/><text fill="#000000" font-family="sans-serif" font-size="14" lengthAdjust="spacing" textLength="51" x="133.75" y="2514.9951">HVStop</text><g id="HVStop.ReceiveStopMsg"><rect fill="#FEFECE" filter="url(#f15rikx4uhua7e)" height="50" rx="12.5" ry="12.5" style="stroke:#A80036;stroke-width:1.5;" width="136" x="19" y="2535.2969"/><line style="stroke:#A80036;stroke-width:1.5;" x1="19" x2="155" y1="2561.5938" y2="2561.5938"/><text fill="#000000" font-family="sans-serif" font-size="14" lengthAdjust="spacing" textLength="116" x="29" y="2553.292">ReceiveStopMsg</text></g><g id="HVStop.PosContactorOff"><rect fill="#FEFECE" filter="url(#f15rikx4uhua7e)" height="50" rx="12.5" ry="12.5" style="stroke:#A80036;stroke-width:1.5;" width="133" x="20.5" y="2622.2969"/><line style="stroke:#A80036;stroke-width:1.5;" x1="20.5" x2="153.5" y1="2648.5938" y2="2648.5938"/><text fill="#000000" font-family="sans-serif" font-size="14" lengthAdjust="spacing" textLength="113" x="30.5" y="2640.292">PosContactorOff</text></g><g id="HVStop.NegContactorOff"><rect fill="#FEFECE" filter="url(#f15rikx4uhua7e)" height="50" rx="12.5" ry="12.5" style="stroke:#A80036;stroke-width:1.5;" width="135" x="19.5" y="2709.2969"/><line style="stroke:#A80036;stroke-width:1.5;" x1="19.5" x2="154.5" y1="2735.5938" y2="2735.5938"/><text fill="#000000" font-family="sans-serif" font-size="14" lengthAdjust="spacing" textLength="115" x="29.5" y="2727.292">NegContactorOff</text></g><!--MD5=[09e8840b823e81bf236140c09133e6cf]
link ReceiveStopMsg to PosContactorOff--><path d="M87,2585.4269 C87,2595.2069 87,2606.5969 87,2616.8569 " fill="none" id="ReceiveStopMsg-to-PosContactorOff" style="stroke:#A80036;stroke-width:1.0;"/><polygon fill="#A80036" points="87,2622.1069,91,2613.1069,87,2617.1069,83,2613.1069,87,2622.1069" style="stroke:#A80036;stroke-width:1.0;"/><!--MD5=[c792707d39d532517ba3bc10a31a3d1a]
link PosContactorOff to PosContactorOff--><path d="M153.6,2640.0469 C164.22,2641.1069 171.5,2643.5269 171.5,2647.2969 C171.5,2650.4169 166.51,2652.6169 158.76,2653.8769 " fill="none" id="PosContactorOff-to-PosContactorOff" style="stroke:#A80036;stroke-width:1.0;"/><polygon fill="#A80036" points="153.6,2654.5469,163.0397,2657.3562,158.5585,2653.9038,162.0108,2649.4226,153.6,2654.5469" style="stroke:#A80036;stroke-width:1.0;"/><text fill="#000000" font-family="sans-serif" font-size="13" lengthAdjust="spacing" textLength="117" x="177.5" y="2651.8638">Wait for pos sense</text><!--MD5=[c7121fdfbe4da1ac590163d7f23093f0]
link PosContactorOff to NegContactorOff--><path d="M87,2672.4269 C87,2682.2069 87,2693.5969 87,2703.8569 " fill="none" id="PosContactorOff-to-NegContactorOff" style="stroke:#A80036;stroke-width:1.0;"/><polygon fill="#A80036" points="87,2709.1069,91,2700.1069,87,2704.1069,83,2700.1069,87,2709.1069" style="stroke:#A80036;stroke-width:1.0;"/><!--MD5=[6945cbcbd88633a9073279a6a6bababa]
link NegContactorOff to NegContactorOff--><path d="M154.73,2727.0769 C165.3,2728.1569 172.5,2730.5669 172.5,2734.2969 C172.5,2737.3869 167.56,2739.5669 159.86,2740.8369 " fill="none" id="NegContactorOff-to-NegContactorOff" style="stroke:#A80036;stroke-width:1.0;"/><polygon fill="#A80036" points="154.73,2741.5169,164.1776,2744.2994,159.6866,2740.8598,163.1263,2736.3688,154.73,2741.5169" style="stroke:#A80036;stroke-width:1.0;"/><text fill="#000000" font-family="sans-serif" font-size="13" lengthAdjust="spacing" textLength="118" x="178.5" y="2738.8638">Wait for neg sense</text><rect fill="#FEFECE" filter="url(#f15rikx4uhua7e)" height="192.2969" rx="12.5" ry="12.5" style="stroke:#A80036;stroke-width:1.5;" width="199" x="774" y="2541"/><rect fill="#FFFFFF" height="160" rx="12.5" ry="12.5" style="stroke:#FFFFFF;stroke-width:1.0;" width="193" x="777" y="2570.2969"/><line style="stroke:#A80036;stroke-width:1.5;" x1="774" x2="973" y1="2567.2969" y2="2567.2969"/><text fill="#000000" font-family="sans-serif" font-size="14" lengthAdjust="spacing" textLength="63" x="842" y="2558.9951">AMSFault</text><g id="AMSFault.TODO"><rect fill="#FEFECE" filter="url(#f15rikx4uhua7e)" height="50.2656" rx="12.5" ry="12.5" style="stroke:#A80036;stroke-width:1.5;" width="171" x="786" y="2579.2969"/><line style="stroke:#A80036;stroke-width:1.5;" x1="786" x2="957" y1="2605.5938" y2="2605.5938"/><text fill="#000000" font-family="sans-serif" font-size="14" lengthAdjust="spacing" textLength="42" x="850.5" y="2597.292">TODO</text><text fill="#000000" font-family="sans-serif" font-size="12" lengthAdjust="spacing" textLength="151" x="791" y="2621.7324">"Until Leave Fault State"</text></g><g id="AMSFault.SendError"><rect fill="#FEFECE" filter="url(#f15rikx4uhua7e)" height="50" rx="12.5" ry="12.5" style="stroke:#A80036;stroke-width:1.5;" width="89" x="827" y="2665.2969"/><line style="stroke:#A80036;stroke-width:1.5;" x1="827" x2="916" y1="2691.5938" y2="2691.5938"/><text fill="#000000" font-family="sans-serif" font-size="14" lengthAdjust="spacing" textLength="69" x="837" y="2683.292">SendError</text></g><!--MD5=[bcdd0ba4e90c62a913a084eea1419cad]
link TODO to SendError--><path d="M871.5,2629.5969 C871.5,2639.0869 871.5,2650.0469 871.5,2659.9769 " fill="none" id="TODO-to-SendError" style="stroke:#A80036;stroke-width:1.0;"/><polygon fill="#A80036" points="871.5,2665.0569,875.5,2656.0569,871.5,2660.0569,867.5,2656.0569,871.5,2665.0569" style="stroke:#A80036;stroke-width:1.0;"/><!--MD5=[53ac1eb81411e77ed4e0fec6b59b9409]
link *start to Boot--><path d="M710.5,26.08 C710.5,39.14 710.5,65.24 710.5,97.49 " fill="none" id="*start-to-Boot" style="stroke:#A80036;stroke-width:1.0;"/><polygon fill="#A80036" points="710.5,102.72,714.5,93.72,710.5,97.72,706.5,93.72,710.5,102.72" style="stroke:#A80036;stroke-width:1.0;"/><text fill="#000000" font-family="sans-serif" font-size="13" lengthAdjust="spacing" textLength="69" x="711.5" y="69.0669">Entry Point</text><!--MD5=[6de6e36f3b4ef94c30c552e30eca4810]
link Boot to Idle--><path d="M638.69,639.04 C633.72,657.54 628.7,676.19 623.72,694.72 " fill="none" id="Boot-to-Idle" style="stroke:#A80036;stroke-width:1.0;"/><polygon fill="#A80036" points="622.31,699.94,628.4911,692.2723,623.5965,695.1084,620.7604,690.2138,622.31,699.94" style="stroke:#A80036;stroke-width:1.0;"/><!--MD5=[5ab297f502a9589885c2e5a76fe8493e]
link Boot to AMSFault--><path d="M808.91,639.35 C838.13,740.56 862.5,857.72 862.5,967 C862.5,967 862.5,967 862.5,2169 C862.5,2295.48 866.58,2441.18 869.77,2535.74 " fill="none" id="Boot-to-AMSFault" style="stroke:#A80036;stroke-width:1.0;"/><polygon fill="#A80036" points="869.94,2540.76,873.6284,2531.6279,869.7682,2535.763,865.6331,2531.9028,869.94,2540.76" style="stroke:#A80036;stroke-width:1.0;"/><!--MD5=[4f7116d012c72546cb0d8b5f1cb34cc3]
link Idle to Idle--><path d="M639.03,913.42 C659.21,918.23 674,936.42 674,968 C674,996.86 661.64,1014.54 644.11,1021.04 " fill="none" id="Idle-to-Idle" style="stroke:#A80036;stroke-width:1.0;"/><polygon fill="#A80036" points="639.03,1022.58,648.8049,1023.7851,643.8132,1021.1236,646.4747,1016.132,639.03,1022.58" style="stroke:#A80036;stroke-width:1.0;"/><text fill="#000000" font-family="sans-serif" font-size="13" lengthAdjust="spacing" textLength="131" x="680" y="972.5669">Wait until HV started</text><!--MD5=[ec38f7c371508ad3aaad500541fcfde5]
link Idle to HVStart--><path d="M531.3,1236.08 C529.97,1254.57 528.62,1273.23 527.29,1291.76 " fill="none" id="Idle-to-HVStart" style="stroke:#A80036;stroke-width:1.0;"/><polygon fill="#A80036" points="526.92,1296.98,531.5528,1288.2888,527.2773,1291.9928,523.5733,1287.7172,526.92,1296.98" style="stroke:#A80036;stroke-width:1.0;"/><!--MD5=[cbf661df12240283b4da1c053ba9e279]
link Idle to AMSFault--><path d="M639.05,1108.8 C670.63,1165.18 703.15,1232.15 722.5,1297 C871.92,1797.64 755.15,1950.91 836.5,2467 C840.02,2489.34 844.67,2513.16 849.48,2535.66 " fill="none" id="Idle-to-AMSFault" style="stroke:#A80036;stroke-width:1.0;"/><polygon fill="#A80036" points="850.58,2540.74,852.5862,2531.0976,849.5226,2535.8531,844.7671,2532.7895,850.58,2540.74" style="stroke:#A80036;stroke-width:1.0;"/><!--MD5=[d0b9c31c9214c9de7a86914dfa532a39]
link HVStart to HVRun--><path d="M467.3,1839.13 C464.56,1857.52 461.8,1876.06 459.06,1894.46 " fill="none" id="HVStart-to-HVRun" style="stroke:#A80036;stroke-width:1.0;"/><polygon fill="#A80036" points="458.29,1899.65,463.5562,1891.3273,459.0171,1894.7031,455.6412,1890.164,458.29,1899.65" style="stroke:#A80036;stroke-width:1.0;"/><!--MD5=[a449e5286ca21c69d8641a66683cd227]
link HVRun to SCFault--><path d="M364.16,2436.15 C360.91,2456.69 357.97,2477.15 355.5,2497 C353.6225,2512.1125 352.1844,2528.205 351.0831,2543.8798 C350.5325,2551.7173 350.0661,2559.4503 349.6711,2566.9042 C349.4736,2570.6311 349.2939,2574.2883 349.1305,2577.8538 C349.0897,2578.7452 349.0499,2579.6309 349.011,2580.5104 C348.9916,2580.9502 348.9724,2581.3885 348.9535,2581.8252 " fill="none" id="HVRun-to-SCFault" style="stroke:#A80036;stroke-width:1.0;"/><polygon fill="#A80036" points="348.9535,2581.8252,353.3395,2573.0069,349.17,2576.8299,345.347,2572.6605,348.9535,2581.8252" style="stroke:#A80036;stroke-width:1.0;"/><!--MD5=[912832c5e9d5586ac72d52fbe250b373]
link HVRun to HVStop--><path d="M320.4,2345.89 C293.56,2394.28 264.81,2446.12 239.14,2492.41 " fill="none" id="HVRun-to-HVStop" style="stroke:#A80036;stroke-width:1.0;"/><polygon fill="#A80036" points="236.66,2496.87,244.5274,2490.9452,239.0882,2492.4992,237.5342,2487.06,236.66,2496.87" style="stroke:#A80036;stroke-width:1.0;"/><!--MD5=[e23d1c96e932bf0743434c717c5e5a76]
link HVRun to AMSFault--><path d="M516.85,2267.94 C581.09,2332.79 666.64,2419.59 741.5,2497 C753.98,2509.9 767.05,2523.54 779.93,2537.02 " fill="none" id="HVRun-to-AMSFault" style="stroke:#A80036;stroke-width:1.0;"/><polygon fill="#A80036" points="783.55,2540.82,780.257,2531.538,780.1085,2537.1929,774.4536,2537.0444,783.55,2540.82" style="stroke:#A80036;stroke-width:1.0;"/><!--MD5=[25013fd99ce5076266a7f014ea676ab6]
link HVStop to Idle--><path d="M148.41,2496.99 C133.76,2246.88 126.73,1708.74 292.5,1297 C329.44,1205.24 400.36,1118.06 458.51,1056.68 " fill="none" id="HVStop-to-Idle" style="stroke:#A80036;stroke-width:1.0;"/><polygon fill="#A80036" points="461.97,1053.04,452.8736,1056.8156,458.5285,1056.6671,458.677,1062.322,461.97,1053.04" style="stroke:#A80036;stroke-width:1.0;"/><!--MD5=[7124b0b6dc7bbe475814cb34144638c7]
link *start*SCFault to HV_Stop--><path d="M441.5,2647.12 C441.5,2680.13 441.5,2794.35 441.5,2848.75 " fill="none" id="*start*SCFault-to-HV_Stop" style="stroke:#A80036;stroke-width:1.0;"/><polygon fill="#A80036" points="441.5,2853.83,445.5,2844.83,441.5,2848.83,437.5,2844.83,441.5,2853.83" style="stroke:#A80036;stroke-width:1.0;"/><!--MD5=[881dc3221eeb7cb42cc7f7f55b7b48bf]
link HV_Stop to HVStop--><path d="M371.93,2872.42 C304.41,2865.48 208.55,2851.09 183.5,2824 C172.38,2811.98 164.7,2797.5 159.55,2781.99 " fill="none" id="HV_Stop-to-HVStop" style="stroke:#A80036;stroke-width:1.0;"/><polygon fill="#A80036" points="158.03,2777.15,156.9132,2786.9353,159.5295,2781.9199,164.545,2784.5361,158.03,2777.15" style="stroke:#A80036;stroke-width:1.0;"/><!--MD5=[fbc341452a9ff2ab19aa7c15649ff861]
link CheckAMS to a--><path d="M546.41,2860 C521.07,2849.26 493.59,2835.52 486.5,2824 C482.54,2817.57 483.77,2814.05 486.5,2807 C516.3,2730.05 599.25,2666.64 629.38,2645.51 " fill="none" id="CheckAMS-to-a" style="stroke:#A80036;stroke-width:1.0;"/><polygon fill="#A80036" points="633.75,2642.49,624.0718,2644.3154,629.6365,2645.3323,628.6195,2650.897,633.75,2642.49" style="stroke:#A80036;stroke-width:1.0;"/><text fill="#000000" font-family="sans-serif" font-size="13" lengthAdjust="spacing" textLength="109" x="487.5" y="2820.0669">Is SC_SENSE=1?</text><!--MD5=[d6186964a99f6ee7a63186942c2ce1ca]
link a to CheckAMS--><path d="M638.66,2647.41 C632.11,2680.82 609.82,2794.68 599.2,2848.87 " fill="none" id="a-to-CheckAMS" style="stroke:#A80036;stroke-width:1.0;"/><polygon fill="#A80036" points="598.21,2853.93,603.8612,2845.8638,599.1686,2849.0227,596.0096,2844.3301,598.21,2853.93" style="stroke:#A80036;stroke-width:1.0;"/><text fill="#000000" font-family="sans-serif" font-size="13" lengthAdjust="spacing" textLength="18" x="607.5" y="2820.0669">No</text><!--MD5=[8c6dd897b8c2507920996a21aadb527d]
link a to Exit--><path d="M642.71,2646.83 C650.86,2679.43 679.51,2794.03 693.16,2848.63 " fill="none" id="a-to-Exit" style="stroke:#A80036;stroke-width:1.0;"/><polygon fill="#A80036" points="694.43,2853.73,696.1277,2844.0286,693.2173,2848.8793,688.3666,2845.9689,694.43,2853.73" style="stroke:#A80036;stroke-width:1.0;"/><text fill="#000000" font-family="sans-serif" font-size="13" lengthAdjust="spacing" textLength="22" x="686.5" y="2820.0669">Yes</text><!--MD5=[9722ae7975c92bdb33e1be39b0c24ba3]
link HVStop to CheckAMS--><path d="M216.43,2777.43 C229.15,2795.51 244.39,2811.91 262.5,2824 C311.97,2857.03 470.62,2840.26 528.5,2854 C532.71,2855 537.01,2856.19 541.31,2857.5 " fill="none" id="HVStop-to-CheckAMS" style="stroke:#A80036;stroke-width:1.0;"/><polygon fill="#A80036" points="546.34,2859.09,538.9716,2852.5549,541.5742,2857.5775,536.5517,2860.1801,546.34,2859.09" style="stroke:#A80036;stroke-width:1.0;"/><text fill="#000000" font-family="sans-serif" font-size="13" lengthAdjust="spacing" textLength="211" x="263.5" y="2820.0669">Come back if directed by SCFault</text><!--MD5=[223df17d8729700c69a1adb1cd521a6e]
@startuml

[*] - -> Boot: Entry Point

state Boot {
    Heartbeat: Send Heartbeat to Car CAN
    Heartbeat - -> Wakeup
    Wakeup: Send BMS Wakeup
    Wakeup - -> Init
    Init: Initialize BMSs
    Init - -> CheckIMDFault
    CheckIMDFault - -> CheckContactors
    CheckContactors - -> CheckFault
}

Boot - -> Idle
Boot - -> AMSFault

state Idle {
    CheckCarVoltages - -> CheckCurrent
    CheckCurrent - -> CheckTemps
    CheckTemps - -> CheckCellVoltages
    CheckCellVoltages - -> CheckFaults
    CheckFaults - -> TransmitData
}

Idle - -> Idle: Wait until HV started
Idle - -> HVStart
Idle - -> AMSFault

state HVStart {
    NegContactorOn: dsadasd
    NegContactorOn - -> NegContactorOn: Wait until neg sense
    NegContactorOn - -> PreContactorOn
    PreContactorOn - -> Monitor
    Monitor: Monitor Vvehicle - Vcar, time (possible fault)
    Monitor - -> PosContactorOn
    PosContactorOn - -> PosContactorOn: Wait until pos sense
    PosContactorOn - -> PreContactorOff
    PreContactorOff - -> LogicCheck
    LogicCheck: Check Digital Logic
}

HVStart - -> HVRun

state HVRun {
    MonitorVoltages - -> MonitorCurrent
    MonitorCurrent - -> MonitorCellTemps
    MonitorCellTemps - -> MonitorCellVoltages
    MonitorCellVoltages - -> CheckContactorLogic
    CheckContactorLogic - -> Transmit_Data

}
HVRun - -> SCFault
HVRun - -> HVStop
HVRun - -> AMSFault


state HVStop {
	ReceiveStopMsg - -> PosContactorOff
	PosContactorOff - -> PosContactorOff: Wait for pos sense
	PosContactorOff - -> NegContactorOff
	NegContactorOff - -> NegContactorOff: Wait for neg sense

}

HVStop - -> Idle

state SCFault {
	[*] - -> HV_Stop
    HV_Stop: Redirect to HVStop
    HV_Stop - -> HVStop
    state a <<choice>>
    CheckAMS - -> a: Is SC_SENSE=1?
    a - -> CheckAMS: No
    a - -> Exit: Yes
}

HVStop - -> CheckAMS: Come back if directed by SCFault

state AMSFault {
    TODO: "Until Leave Fault State"
    TODO - -> SendError
}

@enduml

PlantUML version 1.2021.9(Sun Jul 25 05:13:56 CDT 2021)
(GPL source distribution)
Java Runtime: OpenJDK Runtime Environment
JVM: OpenJDK 64-Bit Server VM
Default Encoding: UTF-8
Language: en
Country: US
--></g></svg>